<svg xmlns="http://www.w3.org/2000/svg" viewBox="0 0 17 17" width="17" height="17" shape-rendering="crispEdges"><path fill="#070b14" d="M7 2h4v1H7zM13 2h3v1H13zM5 3h2v1H5zM11 3h2v1H11zM16 3h1v1H16zM4 4h1v1H4zM13 4h2v1H13zM16 4h1v1H16zM3 5h1v1H3zM15 5h1v1H15zM3 6h1v1H3zM15 6h1v1H15zM2 7h1v1H2zM14 7h1v1H14zM2 8h1v1H2zM14 8h2v1H14zM2 9h1v1H2zM13 9h1v1H13zM15 9h1v1H15zM2 10h1v1H2zM12 10h1v1H12zM15 10h1v1H15zM1 11h1v1H1zM3 11h1v1H3zM11 11h1v1H11zM14 11h1v1H14zM1 12h1v1H1zM3 12h1v1H3zM9 12h2v1H9zM14 12h1v1H14zM0 13h1v1H0zM3 13h2v1H3zM7 13h2v1H7zM13 13h1v1H13zM0 14h1v1H0zM5 14h2v1H5zM11 14h2v1H11zM1 15h4v1H1zM7 15h4v1H7z"/><path fill="#f2b200" d="M7 3h2v1H7zM5 4h4v1H5zM4 5h2v1H4zM8 5h3v1H8zM4 6h1v1H4zM9 6h2v1H9zM3 7h2v1H3zM9 7h2v1H9zM3 8h3v1H3zM8 8h3v1H8zM5 9h4v1H5zM5 10h4v1H5z"/><path fill="#e97531" d="M9 3h2v1H9zM9 4h4v1H9zM11 5h2v1H11zM11 6h2v1H11zM11 7h2v1H11zM11 8h1v1H11zM3 9h2v1H3zM9 9h2v1H9zM3 10h2v1H3zM9 10h1v1H9zM4 11h4v1H4zM4 12h2v1H4z"/><path fill="#ce0343" d="M13 3h3v1H13zM15 4h1v1H15zM14 5h1v1H14zM13 6h2v1H13zM13 7h1v1H13zM12 8h2v1H12zM11 9h2v1H11zM10 10h2v1H10zM2 11h1v1H2zM8 11h3v1H8zM2 12h1v1H2zM6 12h3v1H6zM1 13h2v1H1zM5 13h2v1H5zM1 14h4v1H1z"/><path fill="#ffd500" d="M6 5h2v1H6zM5 6h4v1H5zM5 7h4v1H5zM6 8h2v1H6z"/><path fill="#ee421e" d="M13 5h1v1H13zM14 9h1v1H14zM13 10h2v1H13zM12 11h2v1H12zM11 12h3v1H11zM9 13h4v1H9zM7 14h4v1H7z"/></svg>